<svg class="svgicon" id="svg34" preserveAspectRatio="xMidYMid meet" xmlns="http://www.w3.org/2000/svg" viewBox="0 0 60 60"><rect x="0.8999999999999999" y="0.8999999999999999" width="58.2" height="58.2" style="stroke: rgb(0, 0, 0); fill: none; stroke-alignment: inside; stroke-width: 1.7999999999999998" rx="29.1" ry="29.1"></rect><g transform="scale(0.59) translate(20.847457627118647, 20.847457627118647)"><style> #svg34 path, #svg34 circle, #svg34 polygon, #svg34 rect { fill: rgb(0, 0, 0) } #svg34 defs &gt; path { fill: none }  #svg34 path[fill="none"], #svg34 circle[fill="none"], #svg34 polygon[fill="none"], #svg34 rect[fill="none"] { fill: none } </style><path fill="rgb(0, 0, 0)" d="M30,60C13.457,60,0,46.542,0,30C0,13.457,13.457,0,30,0s30,13.457,30,30C60,46.542,46.543,60,30,60z M30,2.935C15.076,2.935,2.935,15.076,2.935,30S15.076,57.065,30,57.065S57.065,44.924,57.065,30S44.924,2.935,30,2.935z"></path><path fill="rgb(0, 0, 0)" d="M32.387,16.969c0.048,1.42-0.993,2.556-2.649,2.556c-1.467,0-2.508-1.136-2.508-2.556 c0-1.467,1.089-2.602,2.603-2.602C31.394,14.367,32.387,15.502,32.387,16.969z M27.75,46.304v-22.9h4.165v22.9H27.75z"></path></g></svg>