<svg class="svgicon" id="svg49" preserveAspectRatio="xMidYMid meet" xmlns="http://www.w3.org/2000/svg" viewBox="0 0 128 128"><rect x="0" y="0" width="128" height="128" style="fill: rgb(111, 192, 114)" rx="64" ry="64"></rect><g transform="scale(0.75) translate(21.333333333333332, 21.333333333333332)"><style> #svg49 path, #svg49 circle, #svg49 polygon, #svg49 rect { fill: rgb(255, 255, 255) } #svg49 defs &gt; path { fill: none }  #svg49 path[fill="none"], #svg49 circle[fill="none"], #svg49 polygon[fill="none"], #svg49 rect[fill="none"] { fill: none } </style><style type="text/css"> #svg49 .st0{fill-rule:evenodd;clip-rule:evenodd;} </style><path d="M64.001,7C32.521,7,7,32.519,7,64.001C7,95.479,32.521,121,64.001,121C95.479,121,121,95.479,121,64.001 C121,32.519,95.479,7,64.001,7z M83.317,97.11l2.88,6.86l-10.117,4.248l-2.936-6.995c-2.887,0.701-5.899,1.082-9.003,1.082 c-20.995,0-38.015-17.02-38.015-38.013c0-20.996,17.02-38.015,38.015-38.015c20.993,0,38.013,17.019,38.013,38.015 C102.154,78.29,94.582,90.512,83.317,97.11z"></path><path d="M61.355,59.245l18.046,17.186c2.653-3.332,4.243-7.548,4.243-12.138c0-10.772-8.732-19.504-19.503-19.504 c-10.772,0-19.505,8.731-19.505,19.504c0,9.823,7.267,17.949,16.719,19.302V59.245z"></path><polygon points="76.513,87.875 86.073,86.514 64.056,65.545 64.056,95.703 71.346,89.958 77.525,104.684 82.663,102.526 "></polygon></g></svg>