<svg class="svgicon" id="svg35" preserveAspectRatio="xMidYMid meet" xmlns="http://www.w3.org/2000/svg" viewBox="0 0 60 60"><rect x="0.8999999999999999" y="0.8999999999999999" width="58.2" height="58.2" style="stroke: rgb(0, 0, 0); fill: none; stroke-alignment: inside; stroke-width: 1.7999999999999998" rx="29.1" ry="29.1"></rect><g transform="scale(0.66) translate(15.454545454545453, 15.454545454545453)"><style> #svg35 path, #svg35 circle, #svg35 polygon, #svg35 rect { fill: rgb(0, 0, 0) } #svg35 defs &gt; path { fill: none }  #svg35 path[fill="none"], #svg35 circle[fill="none"], #svg35 polygon[fill="none"], #svg35 rect[fill="none"] { fill: none } </style><path fill="rgb(0, 0, 0)" d="M59.609,28.967c-0.539-0.611-13.382-14.975-29.607-14.975c-16.228,0-29.071,14.363-29.61,14.975 c-0.521,0.592-0.521,1.479,0,2.07c0.539,0.611,13.383,14.971,29.61,14.971c16.226,0,29.068-14.359,29.607-14.971 C60.131,30.445,60.131,29.559,59.609,28.967z M30.002,42.879c-12.387,0-23.053-9.65-26.272-12.877 c3.219-3.227,13.885-12.881,26.272-12.881c12.386,0,23.053,9.656,26.271,12.881C53.06,33.229,42.413,42.879,30.002,42.879z"></path><path fill="rgb(0, 0, 0)" d="M18.501,29.826c0,6.277,5.104,11.385,11.38,11.385c6.28,0,11.391-5.107,11.391-11.385 c0-6.279-5.11-11.387-11.391-11.387C23.605,18.439,18.501,23.547,18.501,29.826z M29.881,39.123c-5.125,0-9.294-4.17-9.294-9.297 c0-5.129,4.169-9.301,9.294-9.301c2.154,0,4.136,0.742,5.715,1.977c-0.683-0.328-1.444-0.518-2.251-0.518 c-2.876,0-5.217,2.34-5.217,5.217c0,2.875,2.341,5.213,5.217,5.213c2.875,0,5.214-2.338,5.214-5.213 c0-0.324-0.034-0.643-0.091-0.951c0.461,1.102,0.717,2.311,0.717,3.576C39.185,34.953,35.011,39.123,29.881,39.123z M36.472,27.201 c0,1.725-1.402,3.127-3.127,3.127c-1.727,0-3.131-1.402-3.131-3.127c0-1.727,1.404-3.131,3.131-3.131 C35.069,24.07,36.472,25.475,36.472,27.201z"></path></g></svg>