<svg class="svgicon" id="svg31" preserveAspectRatio="xMidYMid meet" xmlns="http://www.w3.org/2000/svg" viewBox="0 0 60 60"><rect x="0.8999999999999999" y="0.8999999999999999" width="58.2" height="58.2" style="stroke: rgb(0, 0, 0); fill: none; stroke-alignment: inside; stroke-width: 1.7999999999999998" rx="29.1" ry="29.1"></rect><g transform="scale(0.61) translate(19.18032786885246, 19.18032786885246)"><style> #svg31 path, #svg31 circle, #svg31 polygon, #svg31 rect { fill: rgb(0, 0, 0) } #svg31 defs &gt; path { fill: none }  #svg31 path[fill="none"], #svg31 circle[fill="none"], #svg31 polygon[fill="none"], #svg31 rect[fill="none"] { fill: none } </style><path fill="rgb(0, 0, 0)" d="M42.354,35.737c0.408-0.055,0.771-0.285,0.998-0.629s0.293-0.769,0.182-1.165 c-0.926-3.317-2.691-6.374-5.105-8.84c-0.288-0.295-0.69-0.448-1.1-0.426c-0.411,0.023-0.792,0.224-1.044,0.549 c-0.708,0.913-1.823,1.458-2.982,1.459c-0.654,0-1.303-0.175-1.874-0.505c-1.624-0.938-2.312-2.953-1.599-4.688 c0.156-0.381,0.14-0.812-0.044-1.18c-0.186-0.369-0.521-0.639-0.92-0.741c-3.318-0.851-6.885-0.852-10.207-0.003 c-0.398,0.102-0.734,0.372-0.92,0.74c-0.186,0.367-0.201,0.798-0.045,1.179c0.71,1.736,0.021,3.752-1.602,4.688 c-0.571,0.328-1.22,0.503-1.873,0.503c-1.16,0-2.275-0.546-2.983-1.461c-0.252-0.325-0.632-0.525-1.043-0.55 c-0.418-0.02-0.812,0.132-1.101,0.426c-2.421,2.471-4.189,5.531-5.113,8.85c-0.11,0.396-0.043,0.821,0.183,1.165 c0.227,0.344,0.59,0.573,0.998,0.628c1.856,0.252,3.255,1.854,3.255,3.728c0,1.874-1.399,3.478-3.256,3.729 c-0.407,0.056-0.771,0.285-0.998,0.629c-0.225,0.344-0.292,0.769-0.182,1.165c0.924,3.314,2.689,6.371,5.106,8.84 c0.287,0.294,0.688,0.443,1.1,0.426c0.411-0.024,0.791-0.225,1.043-0.549c0.708-0.913,1.823-1.459,2.981-1.459 c0.654,0,1.304,0.175,1.875,0.505c1.624,0.938,2.311,2.952,1.599,4.688c-0.156,0.381-0.14,0.812,0.045,1.18s0.521,0.639,0.919,0.74 C20.311,59.784,22.03,60,23.757,60c1.724,0,3.438-0.215,5.098-0.639c0.399-0.103,0.734-0.372,0.92-0.74 c0.185-0.368,0.201-0.798,0.045-1.18c-0.711-1.734-0.022-3.749,1.602-4.687c0.572-0.33,1.22-0.504,1.873-0.504 c1.16,0,2.275,0.546,2.984,1.46c0.251,0.325,0.632,0.526,1.043,0.55c0.415,0.02,0.811-0.131,1.1-0.425 c2.418-2.467,4.188-5.527,5.113-8.848c0.111-0.396,0.045-0.821-0.182-1.165s-0.59-0.573-0.998-0.629 c-1.856-0.252-3.257-1.855-3.257-3.729C39.098,37.592,40.498,35.989,42.354,35.737z M40.353,45.581 c-0.697,1.889-1.719,3.654-3.011,5.205c-1.149-0.883-2.577-1.383-4.048-1.383c-1.152,0-2.291,0.306-3.296,0.884 c-2.356,1.36-3.593,4.013-3.247,6.612c-1.975,0.336-4.022,0.336-5.998-0.002c0.348-2.6-0.887-5.252-3.244-6.612 c-1.004-0.58-2.145-0.887-3.299-0.887c-1.467,0-2.895,0.499-4.043,1.38c-1.29-1.55-2.309-3.312-3.005-5.197 c2.423-1.001,4.102-3.396,4.102-6.116c0-2.719-1.679-5.114-4.103-6.114c0.697-1.889,1.718-3.653,3.011-5.206 c1.149,0.883,2.578,1.383,4.048,1.383c1.152,0,2.291-0.306,3.295-0.884c2.357-1.359,3.592-4.012,3.247-6.611 c1.976-0.337,4.026-0.337,5.999,0.001c-0.348,2.6,0.887,5.253,3.244,6.614c1.004,0.579,2.145,0.886,3.298,0.886 c1.469-0.001,2.896-0.5,4.045-1.38c1.289,1.548,2.308,3.311,3.004,5.198c-2.423,1-4.102,3.395-4.102,6.113 C36.25,42.185,37.929,44.579,40.353,45.581z"></path><path fill="rgb(0, 0, 0)" d="M23.757,30.991c-4.672,0-8.474,3.802-8.474,8.474c0,4.673,3.802,8.475,8.474,8.475 c4.673,0,8.474-3.802,8.474-8.475C32.23,34.793,28.43,30.991,23.757,30.991z M23.757,46.516c-3.887,0-7.05-3.163-7.05-7.051 c0-3.887,3.163-7.05,7.05-7.05c3.888,0,7.05,3.163,7.05,7.05C30.807,43.353,27.645,46.516,23.757,46.516z"></path><path fill="rgb(0, 0, 0)" d="M55.751,14.024c-0.261-0.318-0.646-0.509-1.058-0.522c-0.854-0.027-1.563-0.688-1.652-1.536 c-0.088-0.849,0.471-1.642,1.3-1.843c0.4-0.098,0.738-0.363,0.928-0.729c0.188-0.366,0.211-0.795,0.06-1.178 c-0.8-2.026-2.11-3.833-3.792-5.227c-0.316-0.263-0.731-0.375-1.138-0.309c-0.405,0.066-0.764,0.305-0.98,0.655 c-0.437,0.704-1.386,1.005-2.155,0.662c-0.779-0.349-1.186-1.229-0.945-2.049c0.116-0.396,0.056-0.822-0.166-1.169 c-0.223-0.347-0.584-0.581-0.992-0.642c-1.071-0.158-2.171-0.181-3.256-0.069c-1.084,0.113-2.148,0.361-3.164,0.736 c-0.387,0.143-0.692,0.446-0.838,0.831c-0.146,0.386-0.118,0.815,0.076,1.178c0.404,0.753,0.188,1.7-0.503,2.2 c-0.677,0.49-1.677,0.392-2.247-0.205c-0.285-0.297-0.686-0.463-1.095-0.438c-0.411,0.019-0.794,0.214-1.05,0.537 c-1.36,1.712-2.271,3.753-2.635,5.901c-0.069,0.406,0.041,0.821,0.301,1.139c0.261,0.319,0.646,0.509,1.058,0.522 c0.853,0.027,1.563,0.688,1.651,1.537c0.089,0.848-0.47,1.641-1.299,1.843c-0.4,0.098-0.738,0.363-0.928,0.729 s-0.211,0.795-0.061,1.178c0.8,2.025,2.11,3.832,3.792,5.227c0.317,0.262,0.733,0.376,1.138,0.309 c0.406-0.066,0.764-0.305,0.98-0.654c0.437-0.703,1.385-1.005,2.156-0.66c0.779,0.348,1.187,1.228,0.945,2.047 c-0.115,0.396-0.055,0.821,0.166,1.169c0.223,0.347,0.584,0.581,0.991,0.642c0.626,0.093,1.265,0.141,1.899,0.141 c0.45,0,0.906-0.024,1.357-0.071c1.082-0.113,2.146-0.36,3.163-0.736c0.387-0.143,0.692-0.446,0.839-0.831 c0.146-0.386,0.117-0.815-0.078-1.179c-0.404-0.752-0.187-1.697,0.506-2.199c0.676-0.491,1.676-0.393,2.244,0.204 c0.284,0.297,0.684,0.454,1.095,0.438c0.411-0.019,0.794-0.214,1.05-0.536c1.36-1.711,2.272-3.751,2.638-5.901 C56.121,14.759,56.011,14.343,55.751,14.024z M51.94,18.206c-0.596-0.274-1.248-0.42-1.912-0.42c-0.966,0-1.891,0.3-2.674,0.868 c-1.363,0.988-2.034,2.624-1.853,4.221c-0.396,0.089-0.796,0.155-1.201,0.197c-0.405,0.043-0.812,0.062-1.222,0.055 c-0.15-1.6-1.144-3.063-2.681-3.75c-1.497-0.668-3.294-0.443-4.578,0.506c-0.556-0.598-1.038-1.262-1.434-1.974 c1.309-0.931,2.079-2.522,1.904-4.196c-0.175-1.673-1.257-3.071-2.729-3.713c0.241-0.78,0.576-1.53,0.997-2.231 c0.596,0.274,1.248,0.421,1.913,0.421c0.964,0,1.888-0.3,2.673-0.868c1.362-0.987,2.031-2.624,1.852-4.22 c0.396-0.089,0.797-0.156,1.202-0.198c0.406-0.042,0.817-0.06,1.222-0.054c0.15,1.6,1.143,3.063,2.682,3.75 c1.496,0.668,3.293,0.443,4.577-0.506c0.556,0.598,1.037,1.262,1.434,1.975c-1.308,0.931-2.079,2.521-1.905,4.195 c0.175,1.673,1.258,3.071,2.729,3.713C52.696,16.754,52.36,17.504,51.94,18.206z"></path><path fill="rgb(0, 0, 0)" d="M42.689,7.607c-1.437,0.15-2.729,0.85-3.64,1.972c-0.91,1.122-1.329,2.531-1.18,3.968 c0.289,2.764,2.599,4.848,5.374,4.848c0.188,0,0.376-0.01,0.566-0.029c2.966-0.309,5.127-2.974,4.819-5.94 C48.321,9.476,45.702,7.289,42.689,7.607z M43.663,16.95c-2.219,0.232-4.149-1.375-4.376-3.55c-0.11-1.059,0.198-2.097,0.868-2.923 c0.671-0.827,1.623-1.342,2.682-1.453c0.141-0.015,0.28-0.022,0.418-0.022c2.045,0,3.746,1.536,3.958,3.571 C47.44,14.759,45.849,16.722,43.663,16.95z"></path></g></svg>