<svg class="svgicon" id="svg32" preserveAspectRatio="xMidYMid meet" xmlns="http://www.w3.org/2000/svg" viewBox="0 0 60 60"><rect x="0.8999999999999999" y="0.8999999999999999" width="58.2" height="58.2" style="stroke: rgb(0, 0, 0); fill: none; stroke-alignment: inside; stroke-width: 1.7999999999999998" rx="29.1" ry="29.1"></rect><g transform="scale(0.6) translate(20, 20)"><style> #svg32 path, #svg32 circle, #svg32 polygon, #svg32 rect { fill: rgb(0, 0, 0) } #svg32 defs &gt; path { fill: none }  #svg32 path[fill="none"], #svg32 circle[fill="none"], #svg32 polygon[fill="none"], #svg32 rect[fill="none"] { fill: none } </style><path fill="rgb(0, 0, 0)" d="M28.408,43.577L16.865,55.12c-1.485,1.485-3.901,1.485-5.386,0l-6.601-6.6 c-1.484-1.484-1.484-3.901-0.001-5.387l17.656-17.656c1.485-1.484,3.9-1.484,5.386,0l3.301,3.301c0.734,0.736,1.928,0.736,2.663,0 c0.736-0.735,0.736-1.928,0-2.664l-3.3-3.301c-2.952-2.954-7.76-2.954-10.714,0L2.213,40.471c-2.951,2.954-2.951,7.76,0.001,10.715 l6.602,6.6C10.292,59.262,12.231,60,14.172,60s3.88-0.738,5.357-2.215l11.543-11.544c0.736-0.735,0.736-1.929,0-2.664 C30.337,42.841,29.145,42.841,28.408,43.577z"></path><path fill="rgb(0, 0, 0)" d="M57.78,8.819l-6.602-6.6C49.749,0.789,47.847,0,45.822,0c-2.023,0-3.927,0.788-5.357,2.22L28.923,13.763 c-0.736,0.735-0.736,1.929,0,2.664c0.735,0.735,1.928,0.735,2.664,0L43.129,4.884c0.72-0.72,1.676-1.116,2.693-1.116 s1.973,0.396,2.692,1.116l6.602,6.6c0.719,0.72,1.115,1.676,1.115,2.693s-0.396,1.974-1.115,2.693L37.46,34.526 c-0.719,0.719-1.675,1.114-2.692,1.114s-1.974-0.396-2.693-1.114l-3.301-3.302c-0.736-0.735-1.929-0.735-2.664,0 c-0.736,0.735-0.736,1.929,0,2.664l3.301,3.302c1.431,1.431,3.333,2.219,5.357,2.219c2.023,0,3.926-0.788,5.356-2.219L57.78,19.534 c1.431-1.431,2.22-3.333,2.22-5.357C60,12.153,59.211,10.251,57.78,8.819z"></path></g></svg>